HIERARCHY
ROOT pelvis
{
  OFFSET 0 100 0
  CHANNELS 6 Xposition Yposition Zposition Zrotation Xrotation Yrotation
  JOINT pelvis_right_femur
  {
    OFFSET -10.78128 -3.44521 -0.5502486
    CHANNELS 3 Zrotation Xrotation Yrotation
    JOINT right_femur_tibia
    {
      OFFSET -0.8047443 -44.0398 -0.1307829
      CHANNELS 3 Zrotation Xrotation Yrotation
      JOINT right_tibia_foot
      {
        OFFSET 3.006224 -47.83518 -5
        CHANNELS 3 Zrotation Xrotation Yrotation
        End Site
        {
          OFFSET 0 -5 15
        }
      }
    }
  }
  JOINT pelvis_left_femur
  {
    OFFSET 10.78128 -3.44521 -0.5502486
    CHANNELS 3 Zrotation Xrotation Yrotation
    JOINT left_femur_tibia
    {
      OFFSET 0.8047443 -44.0398 -0.1307829
      CHANNELS 3 Zrotation Xrotation Yrotation
      JOINT left_tibia_foot
      {
        OFFSET -4.370144 -48.10324 -4.275266
        CHANNELS 3 Zrotation Xrotation Yrotation
        End Site
        {
          OFFSET 0 -5 15
        }
      }
    }
  }
  JOINT pelvis_spine1
  {
    OFFSET 0 6.468898 -3.129235
    CHANNELS 3 Zrotation Xrotation Yrotation
    JOINT spine1
    {
      OFFSET 0 23.15396 4.99043
      CHANNELS 3 Zrotation Xrotation Yrotation
      JOINT spine2
      {
        OFFSET 0 20.79997 -5.064912
        CHANNELS 3 Zrotation Xrotation Yrotation
        JOINT neck
        {
          OFFSET 0 14.38658 9.616178
          CHANNELS 3 Zrotation Xrotation Yrotation
          End Site
          {
            OFFSET 0 20 0
          }
        }
      }
      JOINT right_manubrium
      {
        OFFSET -5.722621 16.35077 3.967754
        CHANNELS 3 Zrotation Xrotation Yrotation
        JOINT right_clavicle
        {
          OFFSET -13.16364 1.694482 -4.693211
          CHANNELS 3 Zrotation Xrotation Yrotation
          JOINT right_humerus
          {
            OFFSET -28.5034 -0.3100689 -2.792744
            CHANNELS 3 Zrotation Xrotation Yrotation
            JOINT right_radius
            {
              OFFSET -25.15693 0.02248979 -1.271978
              CHANNELS 3 Zrotation Xrotation Yrotation
              End Site
              {
                OFFSET -15 0 0
              }
            }
          }
        }
      }
      JOINT left_manubrium
      {
        OFFSET 5.722621 16.35077 3.967754
        CHANNELS 3 Zrotation Xrotation Yrotation
        JOINT left_clavicle
        {
          OFFSET 13.16364 1.694482 -4.693211
          CHANNELS 3 Zrotation Xrotation Yrotation
          JOINT left_humerus
          {
            OFFSET 29.39168 -1.063119 -2.237045
            CHANNELS 3 Zrotation Xrotation Yrotation
            JOINT left_radius
            {
              OFFSET 24.59957 -0.9528479 0.9047498
              CHANNELS 3 Zrotation Xrotation Yrotation
              End Site
              {
                OFFSET 15 -0 -0
              }
            }
          }
        }
      }
    }
  }
}
MOTION
Frames: 20
Frame Time: 0.0416666666667
0 103.5113 0 1.781101 -1.189831 -0.1859435 2.353866 -10.74945 9.415422 -6.092777e-06 34.88922 5.798778e-06 -5.464943 -18.6518 -3.373505 -7.592926 9.221098 -23.71312 -8.256136e-07 5.637009 -7.641539e-06 8.966891 -16.20825 28.45199 -4.729433 -4.863605 5.214044 2.486344 9.22463 -7.802107 1.221122 22.50601 6.57891 3.200375 -23.55713 8.667213 6.677532 -20.22881 11.55792 85.43111 36.51167 -19.03454 5.143132e-07 -5.176968e-07 16.34663 -6.73855 8.197249 4.215926 5.41542 -19.57811 -1.079669 -95.03422 29.61152 23.59562 -3.221975e-06 1.747116e-06 -16.29086 4.085939 18.26188 8.99218
0.3094794 103.6088 1.39971 1.545592 -1.089773 -0.2454533 2.707149 -13.09738 9.24325 -4.77255e-06 36.51292 4.621291e-06 -5.457307 -17.71652 -3.544147 -7.499703 10.14698 -23.51422 -4.112857e-07 5.581028 -5.840499e-06 8.440821 -16.93033 27.42817 -4.5136 -4.474763 4.971762 2.493996 9.256929 -7.926098 1.169798 22.36121 6.757864 3.167157 -23.64836 8.862716 6.619701 -20.05924 11.57091 85.88949 36.22992 -19.44875 4.129903e-07 -4.203908e-07 16.39049 -6.77854 8.37882 4.250942 5.330826 -19.64311 -1.306077 -94.85577 29.68501 23.41471 -2.599447e-06 1.393473e-06 -16.72418 3.923483 17.86698 9.29155
0.6355853 103.6762 2.901176 1.246331 -0.8030112 -0.1555727 3.170217 -15.83339 8.860743 -3.33574e-06 36.57173 3.389372e-06 -5.499929 -16.44255 -3.516759 -7.331217 10.97829 -23.15791 -1.484398e-07 5.536423 -4.044513e-06 7.653458 -17.79149 26.17447 -4.217732 -3.967432 4.694027 2.543257 9.280252 -8.029184 1.097921 22.16175 7.016231 3.216564 -23.86146 9.06344 6.522591 -19.83134 11.61702 86.31435 35.96586 -19.91127 3.15084e-07 -3.032554e-07 16.26316 -6.97994 8.55831 4.411491 5.386608 -19.81608 -1.539265 -94.60683 29.64936 23.05982 -1.960761e-06 1.007569e-06 -17.43016 3.84966 17.3675 9.488616
0.9689934 103.6525 4.5828 0.9504756 -0.306108 0.03920343 3.648793 -18.505 8.311495 -1.880921e-06 34.8918 2.173933e-06 -5.529236 -14.90745 -3.245319 -7.153511 11.66145 -22.70217 1.745237e-07 5.53383 -2.293019e-06 6.762071 -18.68699 24.92629 -3.909364 -3.489647 4.449521 2.625531 9.274397 -8.092022 1.028413 21.92112 7.316199 3.367163 -24.19429 9.235782 6.387511 -19.56012 11.67389 86.6471 35.75385 -20.40903 2.290515e-07 -1.37888e-07 15.93432 -7.34725 8.68112 4.648692 5.612679 -20.08602 -1.718926 -94.30575 29.48562 22.54078 -1.298119e-06 5.836617e-07 -18.40441 3.899138 16.85531 9.511809
1.296584 103.4796 6.504664 0.6760064 0.3142836 0.3007899 4.12927 -21.20479 7.662072 -4.141928e-07 31.83885 9.881755e-07 -5.491031 -13.19802 -2.843487 -6.984493 12.33249 -22.16936 6.507371e-07 5.656837 -4.007361e-07 5.803996 -19.66238 23.73439 -3.607329 -3.037098 4.233048 2.72856 9.23785 -8.126845 0.9765043 21.66551 7.64023 3.594251 -24.59046 9.393035 6.209489 -19.22169 11.73206 86.96216 35.53241 -20.99878 1.496645e-07 8.590303e-08 15.41432 -7.859388 8.761896 4.907796 5.988902 -20.44154 -1.86462 -93.92841 29.24183 21.77697 -5.826985e-07 1.047922e-07 -19.67327 4.023284 16.33061 9.407488
1.606266 103.1159 8.675981 0.4160854 0.9968637 0.5811581 4.5823 -23.59324 6.983081 7.709146e-07 27.67743 9.843487e-08 -5.479715 -11.50926 -2.343216 -6.802233 12.79818 -21.6031 1.09294e-06 5.908391 1.349595e-06 4.838907 -20.53479 22.66628 -3.319056 -2.6161 4.048667 2.852467 9.179166 -8.124216 0.9375105 21.39528 7.949668 3.866679 -25.00815 9.507649 6.024599 -18.86038 11.78888 87.09259 35.38179 -21.5115 9.49198e-08 3.233509e-07 14.76672 -8.403279 8.792629 5.183992 6.448734 -20.81299 -1.952026 -93.48891 28.93847 20.92526 7.076562e-08 -3.686784e-07 -20.95995 4.206788 15.83343 9.198173
1.89456 102.5881 11.19156 0.1151517 1.732383 0.8719181 5.013963 -25.69707 6.29567 1.782551e-06 23.34626 -6.898676e-07 -5.529766 -9.850229 -1.858753 -6.566565 13.32026 -20.95706 1.539696e-06 6.484855 2.806121e-06 3.686464 -21.16508 21.41628 -3.007695 -2.269449 3.840644 2.998768 9.073629 -8.141682 0.905328 21.11517 8.215202 4.111915 -25.41481 9.595873 5.83173 -18.45656 11.79291 87.26 35.29089 -22.03079 5.354047e-08 5.383299e-07 14.0233 -8.921993 8.868036 5.478173 6.872908 -21.14742 -1.972944 -93.04706 28.63259 20.09008 7.26076e-07 -8.717274e-07 -22.1575 4.367807 15.31876 9.022333
2.154839 101.9305 14.06457 -0.1932585 2.336461 1.168204 5.364889 -27.31415 5.674502 2.381042e-06 19.511 -1.176643e-06 -5.680719 -8.565976 -1.514846 -6.283159 13.81935 -20.28965 1.723236e-06 7.432384 3.619482e-06 2.460252 -21.45514 20.11258 -2.707724 -1.970878 3.601661 3.146268 8.938243 -8.182977 0.8758872 20.90697 8.398933 4.272272 -25.7082 9.646783 5.661997 -18.03399 11.74639 87.48484 35.28324 -22.48305 3.216251e-08 6.653468e-07 13.24091 -9.333051 8.993561 5.760374 7.178627 -21.40655 -1.949988 -92.61266 28.41558 19.27949 1.207814e-06 -1.26075e-06 -23.09278 4.476009 14.84241 8.916061
2.400435 101.2706 17.40524 -0.5521177 2.816691 1.493615 5.662333 -28.24559 5.161334 2.775782e-06 17.12605 -1.659511e-06 -5.940436 -7.534608 -1.343802 -5.94757 14.37251 -19.55696 1.776743e-06 9.128849 3.737399e-06 1.03646 -21.17104 18.51985 -2.377251 -1.796171 3.329303 3.283341 8.781941 -8.273467 0.8439333 20.74291 8.474238 4.300764 -25.88379 9.658692 5.519548 -17.61489 11.6195 87.87599 35.32233 -22.88715 1.554044e-08 6.927937e-07 12.5005 -9.608576 9.239841 6.034397 7.240916 -21.51815 -1.878996 -92.27965 28.28351 18.74488 1.619243e-06 -1.595749e-06 -23.59042 4.460336 14.3627 9.004098
2.647814 100.762 21.24655 -0.9379907 3.089128 1.860814 5.886702 -28.27686 4.802016 2.718904e-06 16.51738 -1.897763e-06 -6.378866 -6.771103 -1.323361 -5.578468 14.80848 -18.80531 1.457825e-06 11.75628 2.808724e-06 -0.4237175 -20.16291 16.77614 -2.034897 -1.735739 3.040411 3.401287 8.665794 -8.402364 0.79039 20.62255 8.435678 4.199747 -25.91008 9.596907 5.466181 -17.22773 11.44757 88.26945 35.48942 -23.14705 1.586056e-08 5.724362e-07 11.80106 -9.686229 9.584102 6.286216 7.005404 -21.46996 -1.784824 -91.97153 28.22625 18.55853 1.788427e-06 -1.746134e-06 -23.48927 4.355082 13.91182 9.247126
2.911939 100.5436 25.58036 -1.348248 3.093865 2.265478 6.131449 -27.49788 4.651594 2.244459e-06 17.37004 -1.841178e-06 -6.946865 -6.297153 -1.456075 -5.162973 14.9635 -18.01768 7.834317e-07 15.59569 1.010035e-06 -1.918154 -18.46594 14.96717 -1.642499 -1.705719 2.764688 3.492151 8.626161 -8.534253 0.724188 20.54748 8.299705 3.988965 -25.78853 9.47438 5.488935 -16.88872 11.2765 88.63519 35.68173 -23.25707 2.902551e-08 3.208059e-07 11.19586 -9.597268 10.02201 6.503019 6.501136 -21.27293 -1.707119 -91.74701 28.21905 18.74277 1.704672e-06 -1.715576e-06 -22.83245 4.135649 13.45683 9.667819
3.20352 100.7155 30.3956 -1.745392 2.887274 2.664659 6.462051 -25.78349 4.658245 1.436731e-06 18.60237 -1.472423e-06 -7.564059 -6.251402 -1.612486 -4.712064 14.4032 -17.09133 -2.021252e-08 21.02533 -1.382906e-06 -3.415898 -16.11932 13.21402 -1.178256 -1.684655 2.618838 3.5437 8.683543 -8.611423 0.6477068 20.52816 8.091173 3.724481 -25.57147 9.281293 5.547638 -16.64092 11.16385 88.9489 35.83817 -23.24293 3.965645e-08 -6.139996e-09 10.72714 -9.472146 10.51323 6.685981 5.82411 -21.0038 -1.64385 -91.7147 28.18993 19.31269 1.393875e-06 -1.525637e-06 -21.90255 3.837535 12.99215 10.19776
3.495998 101.3041 35.45474 -2.011822 2.350833 2.974529 6.849738 -23.42629 4.833672 3.457297e-08 19.48961 -3.858065e-07 -8.194787 -6.908679 -1.782461 -4.281121 12.88061 -16.10103 -1.083742e-06 28.04191 -4.203582e-06 -4.618794 -13.43963 11.90176 -0.7127747 -1.536977 2.657394 3.538988 8.896948 -8.591563 0.5509026 20.62251 7.853503 3.466574 -25.21256 9.007419 5.684146 -16.4557 11.19809 88.99277 36.00766 -23.10103 4.949575e-08 -4.0104e-07 10.30571 -9.288202 10.9338 6.735036 5.082576 -20.78046 -1.663811 -91.63859 28.17172 19.90391 6.249149e-07 -1.00769e-06 -21.00627 3.569324 12.59212 10.64377
3.781239 102.2555 40.60868 -2.005385 1.545741 3.132074 7.039604 -19.90476 4.899374 -1.021272e-06 19.77481 5.029304e-07 -8.61917 -8.046143 -1.851824 -3.967342 9.80087 -14.89714 -1.667879e-06 35.62134 -5.643183e-06 -5.390847 -10.87256 11.31716 -0.4241583 -1.288098 2.999295 3.404208 9.215708 -8.391391 0.4598414 20.91896 7.621839 3.287355 -24.74077 8.664925 5.787294 -16.42079 11.36406 88.85125 36.19724 -22.64314 2.313451e-08 -6.507777e-07 10.07762 -9.584187 11.25975 6.893246 4.411688 -20.60789 -1.727397 -91.78466 28.13309 20.51743 -6.219422e-08 -4.559678e-07 -20.26615 3.259961 12.21708 11.0472
4.044417 103.4351 45.65094 -1.7051 0.5673687 3.114071 6.954002 -15.62511 4.773615 -1.637073e-06 19.2788 1.149794e-06 -8.767122 -9.455291 -1.737374 -3.759861 5.321395 -13.57993 -2.148162e-06 42.43784 -5.396595e-06 -5.646166 -8.830956 11.4889 -0.3763707 -0.9177298 3.609729 3.134394 9.611311 -8.005418 0.3663621 21.35673 7.446838 3.226204 -24.17859 8.273662 5.84026 -16.54963 11.65552 88.31352 36.40983 -21.76869 -3.500435e-08 -7.27901e-07 10.0917 -10.43318 11.4314 7.219735 3.912362 -20.50848 -1.852917 -91.9551 28.03959 20.99527 -6.318108e-07 1.134658e-07 -19.7861 2.957599 11.86685 11.32113
4.277438 104.6764 50.48621 -1.202565 -0.3821121 2.934234 6.605126 -11.07731 4.453597 -1.942112e-06 17.99638 1.604235e-06 -8.606586 -10.92816 -1.442335 -3.596851 0.2717724 -12.30278 -2.701846e-06 47.27351 -4.115165e-06 -5.517115 -7.464222 12.19454 -0.5507589 -0.5535968 4.35971 2.781415 9.968592 -7.506545 0.283036 21.84431 7.328462 3.258314 -23.58691 7.877161 5.812405 -16.80452 11.9738 87.46769 36.58916 -20.58417 -1.032711e-07 -6.815864e-07 10.33122 -11.72501 11.46705 7.719455 3.640069 -20.45671 -1.980194 -92.07192 27.8869 21.26476 -1.087329e-06 6.62115e-07 -19.57033 2.680508 11.55991 11.46018
4.512029 105.8221 55.14631 -0.5857124 -1.144655 2.634868 6.008641 -6.259764 3.923436 -1.681164e-06 16.47102 1.528052e-06 -8.195433 -12.18964 -0.9168884 -3.447202 -5.10135 -11.09355 -3.123036e-06 49.34675 -1.713711e-06 -5.052134 -6.737467 13.23395 -0.9293435 -0.3009583 5.192478 2.367507 10.23629 -6.940034 0.2058438 22.3046 7.25762 3.356739 -23.04754 7.493885 5.677115 -17.2525 12.25507 86.38449 36.74928 -19.03502 -1.843794e-07 -4.965542e-07 10.91646 -13.44197 11.39941 8.476925 3.55327 -20.38776 -2.056082 -92.27589 27.63707 21.61407 -1.203053e-06 1.028263e-06 -19.39636 2.407448 11.28888 11.53624
4.780826 106.6804 59.67906 -0.0004345958 -1.718552 2.25905 5.317946 -1.828089 3.349276 -1.248936e-06 14.6407 1.268638e-06 -7.538007 -13.45874 -0.38727 -3.176549 -10.08418 -10.00568 -3.326808e-06 48.09922 6.11046e-07 -4.467346 -6.600376 14.33776 -1.372537 -0.1233716 5.94668 1.965887 10.35517 -6.3976 0.1482239 22.6367 7.187287 3.419526 -22.51125 7.162923 5.410657 -17.87934 12.44694 85.12697 36.71209 -17.21089 -2.496572e-07 -2.968936e-07 11.95499 -15.30594 11.34417 9.428601 3.617288 -20.24077 -2.091189 -92.48104 27.31214 22.045 -1.157748e-06 1.249559e-06 -19.13929 2.053955 11.00294 11.67583
5.13261 107.0821 64.17574 0.4733217 -2.071658 1.869539 4.557066 2.004755 2.78501 -7.633482e-07 12.87254 8.684598e-07 -6.688522 -14.84637 0.03220827 -2.753 -14.30853 -9.055879 -3.026641e-06 43.22911 2.232295e-06 -3.873508 -6.975277 15.32944 -1.824526 -0.03031423 6.527707 1.616343 10.27522 -5.94297 0.1116134 22.81228 7.089996 3.380834 -21.96929 6.913646 5.017254 -18.6774 12.49574 83.82643 36.47677 -15.16203 -2.905614e-07 -1.440352e-07 13.50203 -17.1655 11.37173 10.57363 3.773845 -19.95845 -2.055842 -92.73738 26.97348 22.64248 -9.758436e-07 1.314421e-06 -18.64495 1.565612 10.68252 11.98542
5.598444 106.9801 68.64353 0.8065758 -2.237631 1.514838 3.793463 5.147252 2.334168 -6.688509e-07 11.6356 7.551228e-07 -5.886054 -16.25503 0.3653008 -2.259982 -17.60307 -8.329237 -2.588168e-06 36.20932 2.524979e-06 -3.240774 -7.491294 16.10651 -2.224214 -0.03182673 6.914814 1.348538 10.09542 -5.613605 0.0625444 22.80632 6.967005 3.253524 -21.44531 6.709452 4.631807 -19.54484 12.44339 82.39801 36.19565 -13.04992 -2.914779e-07 -1.254668e-07 15.27625 -18.69056 11.4446 11.71645 3.906495 -19.58204 -1.97731 -92.83573 26.64215 23.3938 -9.565828e-07 1.401695e-06 -17.86857 1.073516 10.39745 12.33937
